<?xml version="1.0" encoding="utf-8"?>
<!-- Generator: Adobe Illustrator 16.0.0, SVG Export Plug-In . SVG Version: 6.00 Build 0)  -->
<!DOCTYPE svg PUBLIC "-//W3C//DTD SVG 1.1//EN" "http://www.w3.org/Graphics/SVG/1.1/DTD/svg11.dtd">
<svg version="1.1" id="Layer_1" xmlns="http://www.w3.org/2000/svg" xmlns:xlink="http://www.w3.org/1999/xlink" x="0px" y="0px"
	 width="214.833px" height="47.167px" viewBox="0 0 214.833 47.167" enable-background="new 0 0 214.833 47.167"
	 xml:space="preserve">
<g>
	<path fill="#FFFFFF" d="M212.277,32.983L88.772,32.669c-0.086,0-0.157-0.071-0.157-0.157s0.071-0.157,0.157-0.157l123.505-0.315
		c0.261,0,0.473,0.211,0.474,0.472s-0.21,0.473-0.471,0.473H212.277z"/>
	<path fill="#FFFFFF" d="M66.369,32.354l-24.841-0.073c-0.004,0.154-0.011,0.307-0.025,0.459l24.867-0.071
		c0.085,0,0.156-0.071,0.157-0.157C66.526,32.426,66.455,32.354,66.369,32.354z"/>
</g>
<g>
	<path fill="#FFFFFF" d="M113.016,26.31h-3.768l-3.306-7.631H95.593l-3.43,7.631h-3.645L98.991,3.14h3.708L113.016,26.31z
		 M100.782,7.28l-3.646,8.062h7.291L100.782,7.28z"/>
	<path fill="#FFFFFF" d="M142.353,3.14c3.491,0,6.734,2.07,6.734,6.426c0,4.911-3.181,6.826-6.734,6.826h-10.039v9.918h-3.337V3.14
		H142.353z M132.313,6.476v6.581h10.039c3.12,0,3.398-2.009,3.398-3.461c0-1.76-1.144-3.12-3.398-3.12H132.313z"/>
	<path fill="#FFFFFF" d="M158.785,3.14v23.17h-3.337V3.14H158.785z"/>
	<path fill="#FFFFFF" d="M170.916,3.14l13.778,17.609h0.061V3.14h3.338v23.17h-3.338L170.979,8.7h-0.062v17.61h-3.336V3.14H170.916z
		"/>
	<path fill="#FFFFFF" d="M214.055,3.14v3.336h-8.124V26.31h-3.337V6.476h-8.124V3.14H214.055z"/>
</g>
<g>
	<path fill="#FFFFFF" d="M17.522,20.378c0,1.175-0.441,2.349-1.468,3.669c-1.908,2.494-7.192,5.431-8.66,6.092
		c-0.66,0.367-0.807,0.587-0.807,1.101c0,2.201,2.641,11.374,13.282,11.374c4.696,0,8.806-1.395,11.449-3.89
		c2.275-2.128,3.815-6.31,3.815-9.687c0-3.523-0.587-5.65-1.761-6.825c-0.588-0.586-1.027-0.732-1.614-0.88
		c-0.661-0.22-1.615-0.294-2.569-0.294c-3.668,0-6.383,1.688-6.383,5.798c0,1.907,0.586,2.642,0.88,2.936
		c0.293,0.294,0.44,0.587,0.293,0.879c-0.146,0.367-0.439,0.881-1.394,1.542c-0.881,0.661-1.982,0.589-2.716,0.074
		c-0.734-0.44-1.321-1.396-1.321-3.01c0-1.98,1.908-5.502,5.284-7.998c3.008-2.202,5.43-2.787,8.365-2.787
		c4.257,0,8.513,1.613,13.209,3.008c3.67,1.101,7.999,2.128,11.521,2.128c4.257,0,6.972-0.881,9.466-3.082
		c1.469-1.469,3.376-4.402,3.376-8.219c0-4.99-2.349-8.513-7.192-8.513c-0.66,0-1.32,0.147-1.614,0.294
		c-0.44,0.147-0.587-0.147-0.293-0.587c1.321-1.614,3.889-2.568,6.09-2.568c2.349,0,6.825,2.055,6.825,8.514
		c0,3.741-2.127,8.218-6.164,12.034c-4.403,4.183-8.732,5.208-12.401,5.208c-2.715,0-5.357-0.366-8.66-1.174
		c-2.422-0.586-6.678-2.054-7.118-2.199c-0.44-0.147-0.44,0.146-0.293,0.44c0.147,0.292,0.293,1.759,0.293,2.493
		c0,6.019-5.284,14.236-13.943,18.348c-3.008,1.467-5.797,1.907-8.365,1.907c-4.99,0-8.879-1.981-11.521-5.284
		c-2.274-2.716-2.715-6.237-2.862-8.513c-0.073-0.587-0.294-0.587-0.441-0.587c-0.293,0.147-0.293,0.147-0.733,0.221
		c-0.294,0.074-0.44,0.074-0.587-0.221c-0.146-0.293-0.146-0.588,0.074-0.66c0.219-0.147,0.879-0.513,1.321-0.661
		c0.44-0.147,0.44-0.292,0.514-0.586c0.219-2.495,1.32-5.651,3.815-8.659c1.468-1.688,3.743-3.376,4.991-4.038
		c1.027-0.659,2.054-0.952,2.494-0.952C16.349,16.562,17.522,18.91,17.522,20.378z M6.514,28.45c0,0.587,0,0.587,0.588,0.366
		c3.375-1.54,6.164-3.447,6.164-6.53c0-0.88-0.293-2.349-2.202-2.349C8.716,19.938,6.514,24.34,6.514,28.45z"/>
</g>
</svg>
