<?xml version="1.0" encoding="utf-8"?>
<!-- Generator: Adobe Illustrator 16.0.0, SVG Export Plug-In . SVG Version: 6.00 Build 0)  -->
<!DOCTYPE svg PUBLIC "-//W3C//DTD SVG 1.1//EN" "http://www.w3.org/Graphics/SVG/1.1/DTD/svg11.dtd">
<svg version="1.1" id="Layer_1" xmlns="http://www.w3.org/2000/svg" xmlns:xlink="http://www.w3.org/1999/xlink" x="0px" y="0px"
	 width="231.926px" height="55.498px" viewBox="0 0 231.926 55.498" enable-background="new 0 0 231.926 55.498"
	 xml:space="preserve">
<g>
	<path fill="#FFFFFF" d="M10.927,6.654h1.513v4.245h6.164V6.654h1.513V17.16h-1.513v-4.749H12.44v4.749h-1.513V6.654z"/>
	<path fill="#FFFFFF" d="M24.478,11.907c0-3.292,2.62-5.477,5.631-5.477c3.011,0,5.631,2.171,5.631,5.477
		c0,3.292-2.619,5.477-5.631,5.477C27.097,17.384,24.478,15.212,24.478,11.907z M34.228,11.907c0-2.171-1.737-3.964-4.118-3.964
		c-2.381,0-4.118,1.793-4.118,3.964c0,2.171,1.737,3.964,4.118,3.964C32.491,15.871,34.228,14.078,34.228,11.907z"/>
	<path fill="#FFFFFF" d="M49.292,13.195c0,1.989-0.756,4.188-4.608,4.188s-4.609-2.199-4.609-4.188V6.654h1.513v6.542
		c0,1.541,0.644,2.676,3.096,2.676c2.451,0,3.096-1.135,3.096-2.676V6.654h1.513L49.292,13.195L49.292,13.195z"/>
	<path fill="#FFFFFF" d="M60.518,6.654c1.681,0,3.292,0.854,3.292,2.998c0,2.284-1.527,2.998-2.41,3.068l2.171,4.44h-1.723
		l-2.101-4.384h-3.908v4.384h-1.513V6.654H60.518z M55.839,8.167v3.096h4.679c1.135,0,1.779-0.588,1.779-1.611
		c0-1.19-0.91-1.484-1.779-1.484L55.839,8.167L55.839,8.167z"/>
	<path fill="#FFFFFF" d="M67.262,14.232c0.7,0.477,1.723,1.639,4.244,1.639c1.415,0,3.348-0.504,3.348-1.793
		c0-1.723-1.975-1.723-3.292-1.723h-1.569c-1.429,0-3.11-0.784-3.11-2.689c0-2.227,2.521-3.236,4.455-3.236
		c2.367,0,3.88,1.121,4.3,1.429l-0.854,1.219c-0.896-0.532-1.639-1.134-3.404-1.134c-1.317,0-2.983,0.49-2.983,1.723
		c0,0.812,0.588,1.205,1.793,1.205h1.387c2.465,0,4.791,0.617,4.791,3.222c0,2.199-2.339,3.292-4.959,3.292
		c-3.166,0-4.566-1.499-5.21-2.129L67.262,14.232z"/>
	<path fill="#FFFFFF" d="M85.448,11.907c0-3.292,2.62-5.477,5.631-5.477c3.011,0,5.631,2.171,5.631,5.477
		c0,3.292-2.619,5.477-5.631,5.477C88.067,17.384,85.448,15.212,85.448,11.907z M95.198,11.907c0-2.171-1.737-3.964-4.118-3.964
		s-4.118,1.793-4.118,3.964c0,2.171,1.737,3.964,4.118,3.964S95.198,14.078,95.198,11.907z"/>
	<path fill="#FFFFFF" d="M102.543,17.16h-1.513V6.654h8.601v1.513h-7.088v2.759h4.3v1.513h-4.3V17.16z"/>
	<path fill="#FFFFFF" d="M118.81,11.907c0-3.292,2.619-5.477,5.631-5.477c3.013,0,5.631,2.171,5.631,5.477
		c0,3.292-2.618,5.477-5.631,5.477C121.429,17.384,118.81,15.212,118.81,11.907z M128.559,11.907c0-2.171-1.737-3.964-4.118-3.964
		c-2.382,0-4.118,1.793-4.118,3.964c0,2.171,1.736,3.964,4.118,3.964C126.822,15.871,128.559,14.078,128.559,11.907z"/>
	<path fill="#FFFFFF" d="M140.486,6.654c1.583,0,3.054,0.938,3.054,2.914c0,2.228-1.441,3.096-3.054,3.096h-4.552v4.497h-1.514
		V6.654H140.486z M135.934,8.167v2.983h4.552c1.415,0,1.541-0.911,1.541-1.569c0-0.798-0.519-1.415-1.541-1.415L135.934,8.167
		L135.934,8.167z"/>
	<path fill="#FFFFFF" d="M155.733,6.654v1.513h-7.088v2.759h3.572v1.513h-3.572v3.208H156v1.513h-8.867V6.654H155.733z"/>
	<path fill="#FFFFFF" d="M166.315,6.654c1.682,0,3.292,0.854,3.292,2.998c0,2.284-1.526,2.998-2.409,3.068l2.172,4.44h-1.724
		l-2.101-4.384h-3.908v4.384h-1.514V6.654H166.315z M161.637,8.167v3.096h4.678c1.135,0,1.779-0.588,1.779-1.611
		c0-1.19-0.91-1.484-1.779-1.484L161.637,8.167L161.637,8.167z"/>
	<path fill="#FFFFFF" d="M182.739,17.16h-1.707l-1.5-3.46h-4.691l-1.557,3.46h-1.652l4.748-10.506h1.683L182.739,17.16z
		 M177.192,8.531l-1.652,3.656h3.307L177.192,8.531z"/>
	<path fill="#FFFFFF" d="M193.602,6.654v1.513h-3.684v8.993h-1.514V8.167h-3.685V6.654H193.602z"/>
	<path fill="#FFFFFF" d="M198.792,6.654V17.16h-1.513V6.654H198.792z"/>
	<path fill="#FFFFFF" d="M202.979,11.907c0-3.292,2.619-5.477,5.631-5.477s5.631,2.171,5.631,5.477c0,3.292-2.619,5.477-5.631,5.477
		S202.979,15.212,202.979,11.907z M212.728,11.907c0-2.171-1.737-3.964-4.118-3.964c-2.382,0-4.117,1.793-4.117,3.964
		c0,2.171,1.735,3.964,4.117,3.964C210.991,15.871,212.728,14.078,212.728,11.907z"/>
	<path fill="#FFFFFF" d="M220.075,6.654l6.246,7.984h0.028V6.654h1.513V17.16h-1.513l-6.247-7.984h-0.027v7.984h-1.514V6.654
		H220.075z"/>
	<g>
		<path fill="#FFFFFF" d="M20.791,27.418h-0.018v4.727H19.8v-6.752h0.973l2.305,4.196l2.305-4.196h0.972v6.752h-0.972v-4.727h-0.018
			l-2.287,4.151L20.791,27.418z"/>
		<path fill="#FFFFFF" d="M29.169,28.77c0-2.116,1.684-3.521,3.619-3.521s3.619,1.396,3.619,3.521c0,2.115-1.684,3.521-3.619,3.521
			S29.169,30.895,29.169,28.77z M35.435,28.77c0-1.396-1.116-2.548-2.646-2.548c-1.531,0-2.647,1.152-2.647,2.548
			c0,1.396,1.116,2.548,2.647,2.548C34.318,31.317,35.435,30.165,35.435,28.77z"/>
		<path fill="#FFFFFF" d="M40.158,25.393l4.015,5.132h0.018v-5.132h0.973v6.752h-0.973l-4.015-5.132h-0.018v5.132h-0.972v-6.752
			H40.158z"/>
		<path fill="#FFFFFF" d="M51.31,25.393c2.368,0,3.313,1.81,3.313,3.34c0,1.891-1.387,3.412-3.313,3.412h-3.106v-6.752H51.31z
			 M49.176,26.365v4.808h2.134c1.666,0,2.341-1.422,2.341-2.431c0-1.44-0.981-2.377-2.341-2.377H49.176z"/>
		<path fill="#FFFFFF" d="M63.227,32.146h-1.099l-0.963-2.224h-3.016l-1,2.224h-1.062l3.052-6.752h1.081L63.227,32.146z
			 M59.662,26.599l-1.062,2.35h2.125L59.662,26.599z"/>
		<path fill="#FFFFFF" d="M65.277,25.393l2.062,2.881l2.043-2.881h1.233l-2.809,3.844v2.908h-0.973v-2.908l-2.728-3.844H65.277z"/>
		<path fill="#FFFFFF" d="M77.94,29.427v0.81h-2.467v-0.81H77.94z"/>
		<path fill="#FFFFFF" d="M84.924,32.146h-0.972v-6.752h5.528v0.972h-4.556v1.773h2.764v0.973h-2.764V32.146z"/>
		<path fill="#FFFFFF" d="M95.933,25.393c1.08,0,2.116,0.549,2.116,1.927c0,1.467-0.981,1.926-1.549,1.971l1.396,2.854h-1.107
			l-1.35-2.818h-2.512v2.818h-0.973v-6.752H95.933z M92.926,26.365v1.99h3.007c0.729,0,1.143-0.379,1.143-1.036
			c0-0.766-0.585-0.955-1.143-0.955H92.926z"/>
		<path fill="#FFFFFF" d="M101.404,25.393v6.752h-0.972v-6.752H101.404z"/>
		<path fill="#FFFFFF" d="M107.489,25.393c2.367,0,3.312,1.81,3.312,3.34c0,1.891-1.386,3.412-3.312,3.412h-3.106v-6.752H107.489z
			 M105.355,26.365v4.808h2.134c1.665,0,2.341-1.422,2.341-2.431c0-1.44-0.981-2.377-2.341-2.377H105.355z"/>
		<path fill="#FFFFFF" d="M119.405,32.146h-1.099l-0.963-2.224h-3.017l-0.999,2.224h-1.062l3.053-6.752h1.08L119.405,32.146z
			 M115.839,26.599l-1.062,2.35h2.125L115.839,26.599z"/>
		<path fill="#FFFFFF" d="M121.455,25.393l2.062,2.881l2.044-2.881h1.233l-2.809,3.844v2.908h-0.973v-2.908l-2.728-3.844H121.455z"
			/>
		<path fill="#FFFFFF" d="M134.596,26.275v5.87h-0.973v-5.87H134.596z"/>
		<path fill="#FFFFFF" d="M140.635,26.275v5.87h-0.973v-5.87H140.635z"/>
		<path fill="#FFFFFF" d="M145.107,27.68c0.36,0,0.631,0.27,0.631,0.631c0,0.359-0.271,0.63-0.631,0.63
			c-0.359,0-0.63-0.271-0.63-0.63C144.477,27.95,144.748,27.68,145.107,27.68z M145.107,31.029c0.36,0,0.631,0.27,0.631,0.63
			s-0.271,0.631-0.631,0.631c-0.359,0-0.63-0.271-0.63-0.631S144.748,31.029,145.107,31.029z"/>
		<path fill="#FFFFFF" d="M148.635,30.606c0.63,0.396,1.216,0.711,2.611,0.711c1.098,0,2.143-0.315,2.143-0.819
			c0-0.945-1.666-0.945-2.521-0.945v-0.937c0.748,0,2.143-0.117,2.143-0.819c0-0.414-0.603-0.693-1.647-0.693
			c-0.684,0-1.512,0.189-2.115,0.513l-0.45-0.81c0.738-0.378,1.549-0.675,2.565-0.675c1.954,0,2.62,0.936,2.62,1.629
			c0,0.621-0.45,1.035-0.702,1.261c0.333,0.188,1.08,0.621,1.08,1.504c0,0.954-1.017,1.765-3.205,1.765
			c-1.773,0-2.538-0.567-3.069-0.9L148.635,30.606z"/>
		<path fill="#FFFFFF" d="M156.375,29.21c0-1.782,1.368-3.079,3.475-3.079s3.476,1.296,3.476,3.079c0,2.306-1.855,3.08-3.476,3.08
			S156.375,31.516,156.375,29.21z M162.353,29.21c0-1.134-0.918-2.106-2.503-2.106c-1.584,0-2.503,0.972-2.503,2.106
			c0,1.081,0.774,2.107,2.503,2.107S162.353,30.291,162.353,29.21z"/>
		<path fill="#FFFFFF" d="M166.843,27.481h1.242l2.286,4.664h-1.062l-0.468-0.981h-2.728l-0.469,0.981h-1.062L166.843,27.481z
			 M166.573,30.228h1.801l-0.9-1.836L166.573,30.228z"/>
		<path fill="#FFFFFF" d="M173.395,29.175h-0.019v2.971h-0.936v-4.664h0.936l1.639,2.341l1.639-2.341h0.937v4.664h-0.937v-2.971
			h-0.018l-1.621,2.341L173.395,29.175z"/>
		<path fill="#FFFFFF" d="M186.094,29.427v0.81h-2.467v-0.81H186.094z"/>
		<path fill="#FFFFFF" d="M192.016,32.146c0-1.594,0.585-3.178,2.286-3.403l1.405-0.18c0.351-0.045,0.756-0.315,0.756-0.721
			c0-0.603-0.711-0.738-1.594-0.738c-0.702,0-1.854,0.387-2.241,0.603l-0.414-0.855c0.81-0.423,1.729-0.72,2.638-0.72
			c1.872,0,2.584,0.918,2.584,1.719c0,0.757-0.622,1.576-1.846,1.729l-1.099,0.145c-1.044,0.144-1.27,0.9-1.396,1.449h4.349v0.973
			H192.016z"/>
		<path fill="#FFFFFF" d="M201.736,27.481h1.243l2.286,4.664h-1.062l-0.468-0.981h-2.728l-0.469,0.981h-1.062L201.736,27.481z
			 M201.466,30.228h1.801l-0.9-1.836L201.466,30.228z"/>
		<path fill="#FFFFFF" d="M208.289,29.175h-0.019v2.971h-0.936v-4.664h0.936l1.639,2.341l1.639-2.341h0.937v4.664h-0.937v-2.971
			h-0.018l-1.621,2.341L208.289,29.175z"/>
		<path fill="#FFFFFF" d="M20.178,41.063c0.45,0.307,1.107,1.054,2.728,1.054c0.909,0,2.151-0.324,2.151-1.152
			c0-1.107-1.269-1.107-2.115-1.107h-1.008c-0.918,0-1.999-0.504-1.999-1.729c0-1.432,1.62-2.08,2.863-2.08
			c1.521,0,2.494,0.721,2.764,0.919l-0.549,0.783c-0.576-0.343-1.053-0.729-2.188-0.729c-0.846,0-1.917,0.315-1.917,1.107
			c0,0.522,0.378,0.774,1.152,0.774h0.891c1.584,0,3.079,0.396,3.079,2.07c0,1.413-1.503,2.115-3.187,2.115
			c-2.035,0-2.935-0.963-3.349-1.368L20.178,41.063z"/>
		<path fill="#FFFFFF" d="M34.481,42.945h-1.099l-0.963-2.224h-3.016l-1,2.224h-1.062l3.052-6.752h1.081L34.481,42.945z
			 M30.916,37.399l-1.062,2.35h2.125L30.916,37.399z"/>
		<path fill="#FFFFFF" d="M41.509,36.193v0.973h-2.368v5.779h-0.972v-5.779h-2.368v-0.973H41.509z"/>
		<path fill="#FFFFFF" d="M49.952,40.397c0,1.278-0.486,2.691-2.962,2.691c-2.476,0-2.962-1.413-2.962-2.691v-4.204H45v4.204
			c0,0.99,0.414,1.72,1.989,1.72c1.576,0,1.99-0.729,1.99-1.72v-4.204h0.972V40.397z"/>
		<path fill="#FFFFFF" d="M57.214,36.193c1.08,0,2.115,0.549,2.115,1.927c0,1.467-0.981,1.927-1.548,1.972l1.396,2.854h-1.107
			l-1.35-2.817h-2.512v2.817h-0.973v-6.752H57.214z M54.208,37.166v1.989h3.007c0.729,0,1.143-0.378,1.143-1.035
			c0-0.766-0.585-0.954-1.143-0.954H54.208z"/>
		<path fill="#FFFFFF" d="M64.774,36.193c2.368,0,3.313,1.81,3.313,3.34c0,1.891-1.387,3.412-3.313,3.412h-3.106v-6.752H64.774z
			 M62.64,37.166v4.807h2.134c1.666,0,2.341-1.422,2.341-2.431c0-1.44-0.981-2.376-2.341-2.376H62.64z"/>
		<path fill="#FFFFFF" d="M76.736,42.945h-1.099l-0.963-2.224h-3.016l-1,2.224h-1.062l3.052-6.752h1.081L76.736,42.945z
			 M73.17,37.399l-1.062,2.35h2.125L73.17,37.399z"/>
		<path fill="#FFFFFF" d="M78.832,36.193l2.062,2.881l2.043-2.881h1.233l-2.809,3.844v2.908h-0.973v-2.908l-2.728-3.844H78.832z"/>
		<path fill="#FFFFFF" d="M91.585,40.227v0.811h-2.467v-0.811H91.585z"/>
		<path fill="#FFFFFF" d="M97.425,41.063c0.45,0.307,1.107,1.054,2.728,1.054c0.91,0,2.152-0.324,2.152-1.152
			c0-1.107-1.27-1.107-2.116-1.107h-1.008c-0.918,0-1.999-0.504-1.999-1.729c0-1.432,1.621-2.08,2.863-2.08
			c1.521,0,2.493,0.721,2.764,0.919l-0.549,0.783c-0.576-0.343-1.054-0.729-2.188-0.729c-0.846,0-1.917,0.315-1.917,1.107
			c0,0.522,0.378,0.774,1.152,0.774h0.892c1.584,0,3.078,0.396,3.078,2.07c0,1.413-1.503,2.115-3.187,2.115
			c-2.034,0-2.935-0.963-3.349-1.368L97.425,41.063z"/>
		<path fill="#FFFFFF" d="M111.701,40.397c0,1.278-0.486,2.691-2.962,2.691s-2.962-1.413-2.962-2.691v-4.204h0.973v4.204
			c0,0.99,0.414,1.72,1.989,1.72s1.99-0.729,1.99-1.72v-4.204h0.972V40.397z"/>
		<path fill="#FFFFFF" d="M115.994,36.193l4.015,5.132h0.019v-5.132h0.972v6.752h-0.972l-4.016-5.132h-0.018v5.132h-0.973v-6.752
			H115.994z"/>
		<path fill="#FFFFFF" d="M127.19,36.193c2.367,0,3.312,1.81,3.312,3.34c0,1.891-1.386,3.412-3.312,3.412h-3.106v-6.752H127.19z
			 M125.056,37.166v4.807h2.134c1.665,0,2.341-1.422,2.341-2.431c0-1.44-0.981-2.376-2.341-2.376H125.056z"/>
		<path fill="#FFFFFF" d="M139.152,42.945h-1.099l-0.963-2.224h-3.017l-0.999,2.224h-1.062l3.053-6.752h1.08L139.152,42.945z
			 M135.586,37.399l-1.062,2.35h2.125L135.586,37.399z"/>
		<path fill="#FFFFFF" d="M141.247,36.193l2.062,2.881l2.044-2.881h1.233l-2.809,3.844v2.908h-0.973v-2.908l-2.728-3.844H141.247z"
			/>
		<path fill="#FFFFFF" d="M154.478,37.075v5.87h-0.973v-5.87H154.478z"/>
		<path fill="#FFFFFF" d="M160.562,37.075v5.87h-0.973v-5.87H160.562z"/>
		<path fill="#FFFFFF" d="M165.863,38.282h1.242l2.286,4.663h-1.062l-0.468-0.981h-2.728l-0.469,0.981h-1.062L165.863,38.282z
			 M165.592,41.027h1.801l-0.9-1.836L165.592,41.027z"/>
		<path fill="#FFFFFF" d="M172.459,39.975h-0.019v2.971h-0.936v-4.663h0.936l1.639,2.341l1.639-2.341h0.937v4.663h-0.937v-2.971
			h-0.018l-1.621,2.341L172.459,39.975z"/>
		<path fill="#FFFFFF" d="M185.249,40.227v0.811h-2.467v-0.811H185.249z"/>
		<path fill="#FFFFFF" d="M191.26,42.945c0-1.594,0.585-3.178,2.286-3.403l1.405-0.18c0.351-0.045,0.756-0.315,0.756-0.721
			c0-0.603-0.711-0.738-1.594-0.738c-0.702,0-1.854,0.388-2.241,0.604l-0.414-0.855c0.81-0.423,1.729-0.72,2.638-0.72
			c1.872,0,2.584,0.918,2.584,1.72c0,0.756-0.622,1.575-1.846,1.729l-1.099,0.144c-1.044,0.145-1.27,0.9-1.396,1.449h4.349v0.973
			H191.26z"/>
		<path fill="#FFFFFF" d="M201.025,38.282h1.243l2.286,4.663h-1.062l-0.468-0.981h-2.728l-0.469,0.981h-1.062L201.025,38.282z
			 M200.755,41.027h1.801l-0.9-1.836L200.755,41.027z"/>
		<path fill="#FFFFFF" d="M207.623,39.975h-0.019v2.971h-0.936v-4.663h0.936l1.639,2.341l1.639-2.341h0.937v4.663h-0.937v-2.971
			h-0.018l-1.621,2.341L207.623,39.975z"/>
	</g>
</g>
</svg>
