<?xml version="1.0" encoding="utf-8"?>
<!-- Generator: Adobe Illustrator 16.0.0, SVG Export Plug-In . SVG Version: 6.00 Build 0)  -->
<!DOCTYPE svg PUBLIC "-//W3C//DTD SVG 1.1//EN" "http://www.w3.org/Graphics/SVG/1.1/DTD/svg11.dtd">
<svg version="1.1" id="Layer_1" xmlns="http://www.w3.org/2000/svg" xmlns:xlink="http://www.w3.org/1999/xlink" x="0px" y="0px"
	 width="214.833px" height="61.868px" viewBox="0 -8.25 214.833 61.868" enable-background="new 0 -8.25 214.833 61.868"
	 xml:space="preserve">
<g>
	<g>
		<path fill="#FFFFFF" d="M50.592,46.104h1.519l2.787,5.688h-1.296l-0.57-1.196h-3.329l-0.575,1.196h-1.295L50.592,46.104z
			 M50.26,49.455h2.198l-1.098-2.242L50.26,49.455z"/>
		<path fill="#FFFFFF" d="M57.702,49.958c0.99,0.638,1.936,0.869,2.933,0.869c0.573,0,1.542-0.142,1.542-0.78
			c0-0.46-0.508-0.58-0.859-0.593l-1.702-0.058c-1.396-0.031-2.076-0.845-2.076-1.726c0-0.845,0.622-1.744,2.666-1.744
			c1.495,0,2.409,0.569,2.748,0.747l-0.518,1.01c-0.448-0.229-1.272-0.612-2.408-0.612c-0.602,0-1.349,0.132-1.349,0.638
			c0,0.436,0.626,0.544,1.01,0.544l1.487,0.057c1.308,0.033,2.14,0.595,2.14,1.79c0,1.025-0.8,1.87-2.682,1.87
			c-1.536,0-2.667-0.383-3.458-0.989L57.702,49.958z"/>
		<path fill="#FFFFFF" d="M70.176,46.104c1.074,0,1.736,0.513,1.736,1.567c0,0.356-0.133,0.762-0.387,1.015
			c0.307,0.242,0.67,0.603,0.67,1.329c0,1.144-0.824,1.777-2.02,1.777h-3.717v-5.688H70.176z M67.603,48.235h2.573
			c0.314,0,0.59-0.175,0.59-0.507c0-0.383-0.283-0.483-0.59-0.483h-2.573V48.235z M67.603,49.377v1.272h2.573
			c0.493,0,0.881-0.154,0.881-0.646c0-0.536-0.445-0.626-0.881-0.626H67.603z"/>
		<path fill="#FFFFFF" d="M76.591,46.104v3.459c0,0.684,0.178,1.265,1.609,1.265c1.514,0,1.602-0.646,1.602-1.265v-3.459h1.145
			v3.459c0,1.198-0.574,2.407-2.76,2.407c-1.975,0-2.734-1.055-2.734-2.407v-3.459H76.591z"/>
		<path fill="#FFFFFF" d="M88.12,46.104c1.059,0,2.056,0.393,2.056,1.683c0,1.085-0.734,1.481-1.272,1.681l1.439,2.325h-1.439
			l-1.442-2.313H85.64v2.313h-1.149v-5.688H88.12z M85.64,47.245v1.091h2.48c0.34,0,0.912-0.045,0.912-0.549
			c0-0.529-0.517-0.542-0.912-0.542H85.64z"/>
		<path fill="#FFFFFF" d="M93.799,46.104l1.52,2.239l1.56-2.239h1.365L95.9,49.499v2.294h-1.138v-2.294l-2.389-3.395H93.799z"/>
		<path fill="#FFFFFF" d="M109.772,46.104c1.107,0,2.051,0.481,2.051,1.798c0,1.277-0.878,1.838-2.051,1.838h-2.278v2.053h-1.139
			v-5.688H109.772z M107.494,48.598h2.278c0.437,0,0.909-0.057,0.909-0.696c0-0.601-0.504-0.657-0.909-0.657h-2.278V48.598z"/>
		<path fill="#FFFFFF" d="M116.001,46.104h1.519l2.787,5.688h-1.292l-0.573-1.196h-3.33l-0.572,1.196h-1.297L116.001,46.104z
			 M115.669,49.455h2.197l-1.098-2.242L115.669,49.455z"/>
		<path fill="#FFFFFF" d="M126.407,46.104c1.059,0,2.057,0.393,2.057,1.683c0,1.085-0.737,1.481-1.271,1.681l1.438,2.325h-1.438
			l-1.443-2.313h-1.821v2.313h-1.147v-5.688H126.407z M123.927,47.245v1.091h2.479c0.343,0,0.913-0.045,0.913-0.549
			c0-0.529-0.518-0.542-0.913-0.542H123.927z"/>
		<path fill="#FFFFFF" d="M133.057,46.104v2.474l2.451-2.474h1.458l-1.994,2.021l2.318,3.667h-1.374l-1.786-2.812l-1.073,1.055
			v1.757h-1.141v-5.688H133.057z"/>
		<path fill="#FFFFFF" d="M140.894,51.926c-0.339,0-0.748-0.243-0.748-0.756c0-0.466,0.391-0.739,0.736-0.739
			c0.447,0,0.912,0.44,0.912,1.232c0,0.966-1.152,1.898-1.309,1.954l-0.135-0.152c0.17-0.098,1.027-0.913,1.027-1.361
			c0-0.044,0-0.178-0.153-0.178H140.894z"/>
		<path fill="#FFFFFF" d="M150.871,46.104h1.145l3.123,3.842h0.019v-3.842h1.144v5.688h-1.144l-3.122-3.847h-0.02v3.847h-1.145
			V46.104z"/>
		<path fill="#FFFFFF" d="M159.784,49.805c0.266,0.408,0.595,1.022,1.639,1.022c0.888,0,1.405-0.44,1.405-1.164v-3.56h1.145v3.56
			c0,1.106-0.729,2.307-2.594,2.307c-1.812,0-2.355-1.155-2.561-1.507L159.784,49.805z"/>
	</g>
	<path fill="#FFFFFF" d="M46.989,30.488c-1.9,0-2.989-0.901-2.989-2.843c0-0.57,0.048-0.995,0.193-1.423
		c0.425,0.049,0.896,0.049,1.373,0.049c1.851,0,4.355-0.425,6.917-1.326c1.61-0.565,3.224-1.655,4.83-2.084
		c-0.141-0.237-0.233-0.662-0.233-1.09c0-0.332,0.185-0.901,0.185-1.422c0-2.607-3.457-3.171-5.541-3.171
		c-4.881,0-8.101,2.367-8.856,2.937c-0.666,0.472-3.369,2.605-4.031,2.746c0.096,0.192,0.145,0.57,0.145,0.756
		c0,0.914-0.275,1.57-0.518,2.209c-2.334,2.008-4.856,3.854-5.938,3.854c-0.566,0-0.897-0.284-0.897-0.897
		c0-0.76,1.559-2.37,3.029-4.075c0.76-0.852,1.754-1.607,2.27-1.847c-0.088-0.189-0.137-0.472-0.137-0.755
		c0-0.476,0.093-1.096,0.093-1.612c0-1.519-0.618-3.033-3.461-3.033c-2.651,0-6.157,1.846-7.054,2.746l3.172-4.641
		c3.602-3.645,18.856-5.211,18.856-10.657c0-2.23-1.802-3.982-6.394-3.982c-5.119,0-10.611,4.169-13.978,9.097l-7.154,10.47
		c-0.853,1.184-1.895,2.129-2.985,2.367c0.048,0.094,0.096,0.429,0.096,0.663c0,0.045,0,0.094-0.008,0.142
		c-2.69,2.598-6.834,6.064-8.992,6.064c-0.667,0-0.997-0.283-0.997-1.042c0-0.425,0.378-1.278,0.997-2.367
		c0.662-1.135,2.035-2.986,3.551-3.459c-0.141-0.286-0.141-0.569-0.141-0.9c0-0.759,0.424-1.564,0.853-2.319
		c0.993-1.421,1.992-2.839,3.033-4.262h5.35l1.373-1.801h-5.397c1.752-2.372,3.458-4.504,4.689-6.019
		c0.045-0.048,0.142-0.191,0.142-0.332c0-0.146-0.142-0.283-0.333-0.283c-0.378,0-1.753,0.945-4.831,0.945
		c-0.477,0-0.662,0.049-0.759,0.188l-4.169,5.501H7.417l-1.276,1.801h4.83c-1.325,1.798-2.653,3.644-3.886,5.446
		c-0.71,0.993-1.705,1.798-2.698,2.035c0.097,0.24,0.141,0.522,0.141,0.805c0,0.664-0.092,1.374-0.424,1.991
		c-0.904,1.705-1.52,3.175-1.52,4.121c0,2.275,1.423,3.268,3.697,3.268c3.002,0,6.483-2.376,9.223-4.718l-2.731,4.008h5.352
		l4.359-6.488l0.096-0.141c0.896-1.233,1.988-2.416,3.313-2.845c0-1.47,2.561-2.464,3.648-2.464c0.617,0,1.045,0.239,1.045,0.805
		c0,0.807-0.523,1.47-1.519,1.659c0.049,0.094,0.049,0.24,0.049,0.332c0,0.613-0.477,1.47-1.042,2.225
		c-1.471,2.036-2.23,3.127-2.23,4.028c0,1.891,1.329,3.599,3.603,3.599c2.61,0,5.972-2.282,8.706-4.577
		c0.513,3.321,3.664,4.675,6.702,4.675c8.718,0,16.111-8.528,16.344-8.813l-0.38-1.989C59.681,23.523,52.958,30.488,46.989,30.488z
		 M51.251,19.307c0.71,0,1.184,0.334,1.184,0.948c0,2.605-4.784,4.125-6.771,4.125c-0.286,0-0.524,0-0.759-0.051
		C46.088,21.96,49.074,19.307,51.251,19.307z M35.844,6.848c1.942-2.512,3.931-4.121,5.635-4.121c1.566,0,2.278,0.85,2.278,1.988
		c0,4.169-9.666,5.308-12.082,7.578L35.844,6.848z"/>
	<path fill="#FFFFFF" d="M117.147,35.177c-1.799,0-3.312-2.512-3.312-6.49c0-3.225,0.945-6.965,2.554-10.705
		c0.569-1.281,1.898-3.224,3.556-3.653c-0.332-0.282-0.518-0.751-0.518-1.51c0-0.477,0.138-1.139,0.333-1.471
		c5.016-8.621,12.125-15.819,16.008-15.819c0.569,0,0.9-0.242,0.9-0.667c0-0.424-0.428-0.663-1.472-0.663
		c-2.981,0-6.344,1.47-8.435,3.079c-8.002,0-16.765,7.247-24.537,16.251c-1.325-0.287-2.747-0.428-4.265-0.428
		c-6.724,0-13.453,4.266-13.453,9.759c0,2.751,1.519,4.833,3.79,6.158c-3.692,3.935-6.818,7.344-11.177,7.344
		c-2.323,0-3.931-1.422-3.931-2.703c0-0.706,2.037-0.658,2.037-2.557c0-1.847-1.232-2.649-3.034-2.649
		c-1.847,0-3.414,1.466-3.414,3.6c0,3.028,2.513,6.535,8.483,6.535c4.88,0,8.523-2.606,13.69-8.338
		c1.659,0.569,3.364,0.808,5.021,0.808c5.874,0,8.668-2.653,8.668-5.493c0-0.95-0.565-2.041-1.466-2.041
		c-0.569,0-1.091,0.478-1.091,1.043c0,0.473,0.333,0.663,0.333,1.28c0,1.562-2.368,3.317-5.119,3.317
		c-1.706,0-3.312-0.194-4.452-0.901c3.555-3.838,7.105-8.104,10.563-12.131c2.894,1.421,4.929,3.793,4.929,8.248
		c0,0.945-0.143,1.797-0.143,2.651c0,5.97,3.409,9.19,8.719,9.19c0.474,0,0.755-0.143,0.755-0.522
		C117.669,35.32,117.436,35.177,117.147,35.177z M90.669,26.509c-0.759-0.945-1.183-2.13-1.183-3.507
		c0-3.41,3.312-7.909,9.379-7.958c0.566,0,1.184,0.048,1.798,0.189C97.299,19.023,93.178,23.757,90.669,26.509z M110.422,14.329
		c0.238,0.291,0.379,1.05,0.379,1.47c0,0.526-0.141,1.378-0.334,1.851l-0.376,0.853c-0.949-1.701-2.747-3.082-5.304-4.124
		c5.729-6.537,14.114-13.784,18.853-14.446c-3.033,2.275-6.963,7.106-10.042,11.938C113.168,12.531,111.461,14.095,110.422,14.329z"
		/>
	<path fill="#FFFFFF" d="M211.361,22.34c-1.753,1.944-7.769,7.34-9.995,7.34c-1.281,0-1.518-3.409-1.566-4.925
		c4.408-1.987,8.67-3.838,8.67-7.485c0-1.563-0.757-2.703-1.842-2.703c-1.093,0-1.568,0.715-1.568,1.564
		c0,0.95,0.614,1.139,0.614,1.805c0,1.184-3.409,2.933-6.155,4.213c-0.43-2.509-1.946-4.689-4.785-4.689
		c-4.233,0-7.642,4.06-10.666,7.028c-2.721,2.464-7.357,5.999-11.617,5.999c-1.89,0-2.981-0.901-2.981-2.843
		c0-0.57,0.049-0.995,0.188-1.423c0.429,0.049,0.904,0.049,1.373,0.049c1.851,0,4.361-0.425,6.921-1.326
		c1.61-0.565,3.218-1.655,4.831-2.084c-0.145-0.237-0.24-0.662-0.24-1.09c0-0.332,0.192-0.901,0.192-1.422
		c0-2.607-3.46-3.171-5.542-3.171c-4.881,0-8.101,2.367-8.859,2.937c-0.663,0.472-3.363,2.605-4.03,2.746
		c0.1,0.192,0.144,0.57,0.144,0.756c0,0.662-0.144,1.188-0.315,1.673c-2.487,2.2-5.373,4.391-6.553,4.391
		c-0.566,0-0.9-0.284-0.9-0.897c0-0.76,1.563-2.37,3.035-4.075c0.755-0.852,1.752-1.607,2.269-1.847
		c-0.092-0.189-0.14-0.472-0.14-0.755c0-0.476,0.092-1.096,0.092-1.612c0-1.519-0.614-3.033-3.457-3.033
		c-2.651,0-6.157,1.846-7.054,2.746l1.654-2.465h-5.259l-1.894,2.752c-0.853,1.184-1.896,2.129-2.984,2.367
		c0.048,0.094,0.096,0.429,0.096,0.663c0,0.174-0.025,0.356-0.057,0.539c-2.7,2.524-6.505,5.618-7.904,5.618
		c-0.57,0-0.902-0.284-0.902-0.897c0-0.76,1.564-2.37,3.03-4.075c0.759-0.852,1.753-1.607,2.277-1.847
		c-0.097-0.189-0.145-0.472-0.145-0.755c0-0.476,0.096-1.096,0.096-1.612c0-1.519-0.616-3.033-3.457-3.033
		c-2.654,0-6.165,1.846-7.062,2.746l1.659-2.465h-5.262l-1.891,2.752c-0.857,1.184-1.897,2.129-2.985,2.367
		c0.048,0.094,0.092,0.429,0.092,0.663c0,0.806-0.422,1.802-0.847,2.417l-4.364,6.395h5.355l4.355-6.488l0.1-0.141
		c0.896-1.233,1.985-2.416,3.316-2.845c0-1.47,2.557-2.464,3.646-2.464c0.615,0,1.044,0.239,1.044,0.805
		c0,0.807-0.522,1.47-1.521,1.659c0.048,0.094,0.048,0.24,0.048,0.332c0,0.613-0.471,1.47-1.043,2.225
		c-1.463,2.036-2.222,3.127-2.222,4.028c0,1.891,1.327,3.599,3.598,3.599c2.438,0,5.53-1.987,8.15-4.12l-2.316,3.41h5.351
		l4.359-6.488l0.094-0.141c0.902-1.233,1.991-2.416,3.315-2.845c0-1.47,2.557-2.464,3.645-2.464c0.619,0,1.045,0.239,1.045,0.805
		c0,0.807-0.52,1.47-1.514,1.659c0.044,0.094,0.044,0.24,0.044,0.332c0,0.613-0.474,1.47-1.043,2.225
		c-1.466,2.036-2.225,3.127-2.225,4.028c0,1.891,1.324,3.599,3.598,3.599c2.736,0,6.293-2.496,9.084-4.896
		c0.354,3.554,3.613,4.993,6.74,4.993c7.166,0,13.428-5.757,15.567-7.97c2.442-2.275,5.208-4.824,6.337-4.824
		c1.519,0,1.896,1.612,2.034,3.695c-5.683,2.844-10.139,4.5-10.139,7.818c0,1.562,1,2.938,2.088,2.938s1.565-0.712,1.565-1.561
		c0-0.998-0.616-1.187-0.616-1.902c0-1.277,4.354-3.313,7.246-4.546c0.143,3.128,1.092,6.254,4.406,6.254
		c4.785,0,11.939-7.676,12.933-8.716L211.361,22.34z M176.717,19.307c0.711,0,1.182,0.334,1.182,0.948
		c0,2.605-4.786,4.125-6.773,4.125c-0.281,0-0.521,0-0.759-0.051C171.555,21.96,174.535,19.307,176.717,19.307z"/>
</g>
</svg>
