<?xml version="1.0" encoding="utf-8"?>
<!-- Generator: Adobe Illustrator 16.0.0, SVG Export Plug-In . SVG Version: 6.00 Build 0)  -->
<!DOCTYPE svg PUBLIC "-//W3C//DTD SVG 1.1//EN" "http://www.w3.org/Graphics/SVG/1.1/DTD/svg11.dtd">
<svg version="1.1" id="Layer_1" xmlns="http://www.w3.org/2000/svg" xmlns:xlink="http://www.w3.org/1999/xlink" x="0px" y="0px"
	 width="211.083px" height="18px" viewBox="1.75 0.583 211.083 18" enable-background="new 1.75 0.583 211.083 18"
	 xml:space="preserve">
<g>
	<path fill="#FFFFFF" d="M12.186,1.412c2.599,0,5.089,1.321,5.089,4.634c0,3.53-2.36,4.634-3.725,4.742l3.357,6.865h-2.664
		l-3.249-6.778H4.953v6.778H2.614V1.412H12.186z M4.953,3.751v4.786h7.233c1.755,0,2.75-0.909,2.75-2.49
		c0-1.841-1.408-2.295-2.75-2.295H4.953z"/>
	<path fill="#FFFFFF" d="M37.915,17.654h-2.642l-2.317-5.349h-7.254l-2.404,5.349h-2.555l7.341-16.242h2.599L37.915,17.654z
		 M29.34,4.314l-2.555,5.652h5.11L29.34,4.314z"/>
	<path fill="#FFFFFF" d="M45.345,1.412v16.242h-2.339V1.412H45.345z"/>
	<path fill="#FFFFFF" d="M51.041,13.128c1.083,0.736,2.664,2.534,6.562,2.534c2.188,0,5.176-0.78,5.176-2.772
		c0-2.664-3.054-2.664-5.089-2.664h-2.426c-2.208,0-4.808-1.213-4.808-4.158c0-3.443,3.898-5.002,6.887-5.002
		c3.66,0,5.999,1.733,6.648,2.209l-1.322,1.884c-1.385-0.823-2.533-1.754-5.261-1.754c-2.036,0-4.613,0.758-4.613,2.663
		c0,1.256,0.909,1.863,2.772,1.863h2.144c3.811,0,7.405,0.953,7.405,4.981c0,3.399-3.616,5.089-7.666,5.089
		c-4.893,0-7.06-2.317-8.056-3.292L51.041,13.128z"/>
	<path fill="#FFFFFF" d="M82.574,1.412v2.339H71.616v4.266h5.522v2.338h-5.522v4.959h11.369v2.339H69.278V1.412H82.574z"/>
	<path fill="#FFFFFF" d="M110.512,17.654h-2.642l-2.316-5.349h-7.254l-2.404,5.349h-2.556l7.342-16.242h2.598L110.512,17.654z
		 M101.937,4.314l-2.555,5.652h5.111L101.937,4.314z"/>
	<path fill="#FFFFFF" d="M116.555,1.412l9.658,12.343h0.045V1.412h2.338v16.242h-2.338L116.6,5.31h-0.045v12.344h-2.338V1.412
		H116.555z"/>
	<path fill="#FFFFFF" d="M150.297,14.752C148.76,16.419,146.833,18,142.176,18c-4.396,0-8.555-3.356-8.555-8.337
		c0-4.786,3.705-8.597,8.512-8.597c4.439,0,7.125,2.556,7.904,3.313l-1.754,1.494c-0.736-0.606-2.795-2.469-6.129-2.469
		c-3.031,0-6.193,2.208-6.193,6.258c0,2.902,2.34,5.999,6.779,5.999c3.463,0,5.283-1.754,5.998-2.599L150.297,14.752z"/>
	<path fill="#FFFFFF" d="M155.172,1.412h2.338v6.562h9.529V1.412h2.338v16.242h-2.338v-7.341h-9.529v7.341h-2.338V1.412z"/>
	<path fill="#FFFFFF" d="M174.836,9.533c0-5.089,4.051-8.467,8.707-8.467c4.654,0,8.705,3.357,8.705,8.467
		c0,5.089-4.051,8.467-8.705,8.467C178.887,18,174.836,14.644,174.836,9.533z M189.909,9.533c0-3.356-2.684-6.128-6.365-6.128
		s-6.367,2.772-6.367,6.128c0,3.357,2.686,6.129,6.367,6.129S189.909,12.89,189.909,9.533z"/>
	<path fill="#FFFFFF" d="M207.129,1.412c2.598,0,5.088,1.321,5.088,4.634c0,3.53-2.359,4.634-3.725,4.742l3.357,6.865h-2.664
		l-3.248-6.778h-6.043v6.778h-2.338V1.412H207.129z M199.895,3.751v4.786h7.234c1.754,0,2.75-0.909,2.75-2.49
		c0-1.841-1.408-2.295-2.75-2.295H199.895z"/>
</g>
</svg>
