<?xml version="1.0" encoding="utf-8"?>
<!-- Generator: Adobe Illustrator 16.0.0, SVG Export Plug-In . SVG Version: 6.00 Build 0)  -->
<!DOCTYPE svg PUBLIC "-//W3C//DTD SVG 1.1//EN" "http://www.w3.org/Graphics/SVG/1.1/DTD/svg11.dtd">
<svg version="1.1" id="Layer_1" xmlns="http://www.w3.org/2000/svg" xmlns:xlink="http://www.w3.org/1999/xlink" x="0px" y="0px"
	 width="269px" height="269px" viewBox="0 0 269 269" enable-background="new 0 0 269 269" xml:space="preserve">
<g>
	<g>
		<path d="M203.594,51.211l-0.023-0.017c0.67-1.114,0.391-2.562-0.705-3.317c-1.055-0.727-2.664-0.324-3.525,0.639l-0.02-0.012
			c0,0-6.25,7.709-22.277,8.018c-11.295-0.158-20.965-6.477-25.295-15.516c-1.246-2.276-3.074-1.18-6.459,0.641
			c-3.566,1.916-8.473,3.555-8.473,3.555l0,0c-21.687,7.09-59.287,23.582-58.724,52.684c0.56,29.15,25.672,37.857,43.105,44.781
			c1.559,0.62,3.223,1.285,4.927,1.961l-21.764,31.165l-0.026,0.033l-1.189,1.705c-0.746-0.068-1.191-0.103-1.191-0.103
			c-36.9,0-49.378,19.067-46.166,30.503c0.32,1.018,3.268,8.61,16.107,8.125c2.982-0.242,5.707-0.846,8.119-1.716
			c9.701-3.927,18.244-15.58,18.244-15.58l1.375-1.94c0.28,0.125,0.549,0.244,0.812,0.382c1.376,0.761,4.417,2.465,7.644,4.462
			c0.102,0.062,0.205,0.104,0.293,0.158c0.018,0,0.032,0,0.032,0.016c0.259,0.177,0.542,0.372,0.812,0.562
			c1.104,0.711,2.174,1.443,3.152,2.225l-0.014,0.006c1.229,0.917,2.484,1.886,3.752,2.921c0.029,0.02,0.059,0.042,0.07,0.055
			c1.267,1.028,2.533,2.121,3.847,3.285c0.019,0.016,0.042,0.031,0.06,0.055c4.242,3.882,8.151,7.896,11.107,10.895
			c1.361,1.371,5.044,5.095,7.496,1.873c32.082-41.94,57.229-31.925,57.502-58.604c0.217-21.158-21.326-35.023-43.66-46.738
			l7.709-11.425l0,0c0,0,5.105-7.606,7.291-4.021h0.018c-0.188,0.898-0.312,1.816-0.312,2.768c0,7.542,5.922,13.653,13.23,13.653
			c7.297,0,13.23-7.019,13.23-13.653c0-4.27-2.422-12.826-11.146-15.354c-14.695-2.855-24.836,9.229-27.619,13.049l-0.797,1.14l0,0
			l-7.527,10.781c-13.521-6.882-26.646-13.157-34.71-19.92c-16.473-13.81-3.812-28.38,4.666-34.458l0,0c0,0,4.177-2.52,5.711-1.303
			c0.646,0.392,2.576,2.194,3.338,3.111l0.014-0.007c6.113,8.442,17.554,15.743,31.103,15.743c0.004,0-0.014,0.018-0.014,0.018
			C190.65,78.484,203.594,51.211,203.594,51.211z M90.338,196.037c0,0.004-9.021,12.105-20.72,12.232
			c-10.769-0.885-6.121-13.359,4.08-15.537c2.33-0.5,4.356-0.715,6.224-0.836c0.769-0.006,1.584,0.028,2.459,0.072
			c0.033,0,0.075,0.002,0.125,0.002c0.848,0.062,1.75,0.148,2.676,0.284c0.047,0.005,0.108,0.025,0.154,0.025
			c1.954,0.273,4.086,0.725,6.409,1.438c0.013,0,0.195,0.037,0.195,0.037L90.338,196.037z M167.119,166.277
			c1.025,1.1,3.646,4.377,3.738,9.231c-0.107,1.732-0.342,3.382-0.746,4.817c0,0.028,0,0.041-0.02,0.063
			c-1.75,6.174-5.482,9.658-5.482,9.658c-8.229,8.217-4.867,5.741-22.172-2.593c-10.128-4.889-22.261-7.479-30.599-8.793
			l21.108-31.258C145.939,152.814,160.389,159.548,167.119,166.277z"/>
		<path d="M134.501,1.162c-73.454,0-133.216,59.76-133.216,133.211c0,73.457,59.762,133.219,133.216,133.219
			c73.452,0,133.213-59.762,133.213-133.219C267.715,60.922,207.953,1.162,134.501,1.162z M134.501,257.289
			c-67.772,0-122.911-55.141-122.911-122.916c0-67.77,55.139-122.908,122.911-122.908c67.776,0,122.918,55.14,122.918,122.908
			C257.42,202.148,202.277,257.289,134.501,257.289z"/>
	</g>
</g>
</svg>
