<?xml version="1.0" encoding="utf-8"?>
<!-- Generator: Adobe Illustrator 16.0.0, SVG Export Plug-In . SVG Version: 6.00 Build 0)  -->
<!DOCTYPE svg PUBLIC "-//W3C//DTD SVG 1.1//EN" "http://www.w3.org/Graphics/SVG/1.1/DTD/svg11.dtd">
<svg version="1.1" id="Layer_1" xmlns="http://www.w3.org/2000/svg" xmlns:xlink="http://www.w3.org/1999/xlink" x="0px" y="0px"
	 width="63.834px" height="67.167px" viewBox="437.833 100.833 63.834 67.167"
	 enable-background="new 437.833 100.833 63.834 67.167" xml:space="preserve">
<path fill="#FFFFFF" d="M459.229,141.936c0,0-3.775,4.787-4.985,6.357c-0.197,0.256-0.056,0.417,0.127,0.516
	c9.117,4.873,22.868,11.88,45.184,18.215c0.197,0.057,0.756,0.19,0.903,0.183c0.188-0.009,0.233,0.036,0.223-0.633
	c-0.015-0.666-0.306-3.124-2.593-7.263c-2.219-4.008-5.651-8.547-13.038-14.321c-0.238-0.184-0.683-0.56-0.943-0.722
	c-0.26-0.163-0.504-0.283-0.708-0.353c-0.098-0.033-0.519-0.159-1.429-0.319c0,0-7.107-1.434-15.803-2.328
	c0,0-1.3-0.154-1.685-0.166c0,0-0.302-1.854-0.376-2.415c-0.075-0.562-0.6-11.198-0.6-11.46c0,0,0.897-0.899,0.861-2.06
	c-0.037-1.164-0.674-1.911-1.124-2.434c-0.449-0.526-6.067-8.69-7.19-10.037c-0.442-0.533-0.883-1.066-1.319-1.602
	c-0.727-0.895-1.483-1.768-2.23-2.646c-0.85-0.993-1.727-1.984-2.634-2.925c-0.801-0.831-1.66-1.687-2.533-2.444
	c-2.104-1.826-3.475-1.668-4.682-1.285c-1.362,0.433-2.721,1.305-3.376,2.615c-0.461,0.922-0.619,1.989-0.449,3.005
	c0.154,0.919,0.711,1.599,1.286,2.285c0.657,0.783,1.319,1.597,1.98,2.377c1.321,1.558,2.641,3.111,4.049,4.591
	c0.792,0.833,1.605,1.646,2.442,2.435c2.672,2.512,5.502,4.881,8.234,7.331c0.439,0.393,0.873,0.796,1.329,1.167
	c0.824,0.677,1.268,1.063,1.722,1.087c0.325,0.017,0.226,0.413,0.226,0.639c0,0.223-0.037,10.747,0,11.271
	C460.099,140.596,459.07,140.84,459.229,141.936z"/>
</svg>
